#N canvas 121 38 1512 916 10;
#X obj 150 800 cnv 15 600 400 empty empty MIDI_READ 20 12 0 14 -204786
-66577 0;
#X obj 227 355 hradio 60 1 0 14 empty empty empty 0 -8 0 20 -262144
-1 -1 9;
#X obj 227 397 s section;
#X obj 151 2154 cnv 15 1500 300 empty empty PART_5:_IMPROVISATION_LOCKING
20 12 0 14 -204800 -66577 0;
#X obj 269 2389 spigot;
#X obj 551 1090 s bar;
#X obj 293 2300 r bar;
#X obj 269 2412 bng 15 250 50 0 empty empty empty 17 7 0 10 -262144
-1 -1;
#X floatatom 218 2335 5 0 0 0 - - -;
#X floatatom 419 2336 5 0 0 0 - - -;
#X text 233 2185 The black keys start completely locked \, each new
loop unlocks one key;
#X obj 150 1151 cnv 15 1200 300 empty empty PART_1 20 12 0 14 -261682
-66577 0;
#X obj 771 1269 + 1;
#X floatatom 821 1270 5 0 0 0 - - -;
#X msg 771 1213 1;
#X msg 771 1251 1;
#X msg 822 1248 0;
#X obj 713 1324 spigot;
#X obj 713 1362 bng 15 250 50 0 empty empty empty 17 7 0 10 -262144
-1 -1;
#X text 226 1152 Finger tapping (30 sec): keys are depressed and Rosa
has to play only keys that are depressed through tapping \, sliding
\, etc.;
#X obj 240 1319 + 1;
#X floatatom 268 1320 5 0 0 0 - - -;
#X msg 200 1291 1;
#X msg 239 1256 0;
#X obj 240 1359 spigot;
#X obj 240 1337 expr if($f1 > $f2 \, 1 \, 0);
#X obj 380 1292 loadbang;
#X msg 380 1311 5;
#X obj 821 1209 loadbang;
#X msg 821 1225 14;
#X text 743 1385 Create N random T notes;
#X obj 792 1417 nbx 5 14 -1e+37 1e+37 0 0 empty empty empty 0 -8 0
10 -260097 -1 -1 14 256;
#X obj 232 1417 bng 15 250 50 0 empty empty empty 17 7 0 10 -260097
-1 -1;
#X text 206 1394 Trigger every T seconds (or bang);
#X obj 519 1279 + 1;
#X floatatom 569 1280 5 0 0 0 - - -;
#X msg 519 1222 1;
#X msg 519 1261 1;
#X msg 571 1247 0;
#X obj 514 1328 spigot;
#X obj 475 1299 expr if($f1 > 127 \, 1 \, 0);
#X msg 606 1324 0;
#X text 471 1394 Send note off to every key;
#X obj 150 1451 cnv 15 1200 300 empty empty PART_2 20 12 0 14 -261234
-66577 0;
#X text 226 1452 Motif presentation (1.5-2 min): Rosa continuously
loops the main theme. Keys start completely locked and gradually get
released.;
#X text 691 1685 3 UPDATE LIST;
#X obj 694 1587 list-delete;
#X obj 698 1556 list-len;
#X floatatom 649 1617 5 0 0 0 - - -;
#X obj 695 1616 prepent set;
#X msg 617 1465 54 56 58 61 63 66 68 70 73 75 78 80 82 85 87 90;
#X obj 568 1507 prepent set;
#X msg 647 1507;
#X obj 964 1522 prepent set;
#X obj 979 1601 + 1;
#X floatatom 1029 1601 5 0 0 0 - - -;
#X msg 979 1545 1;
#X msg 979 1583 1;
#X msg 1029 1579 0;
#X obj 978 1645 spigot;
#X msg 1011 1544 80;
#X obj 1101 1580 list-nth 2;
#X floatatom 1101 1598 5 0 0 0 - - -;
#X obj 978 1666 bng 15 250 50 0 empty empty empty 17 7 0 10 -262144
-1 -1;
#X obj 979 1565 metro 5;
#X msg 1123 1619 1;
#X obj 915 1623 expr if($f1 >= $f2 \, 1 \, 0);
#X text 953 1687 4 SEND NOTE-ON;
#X obj 1166 1645 print noteon;
#X obj 601 1545 bng 15 250 50 0 empty empty empty 17 7 0 10 -262144
-1 -1;
#X floatatom 805 1601 5 0 0 0 - - -;
#X obj 1469 1394 +;
#X msg 1442 1351 1;
#X floatatom 1524 1366 5 0 0 0 - - -;
#X msg 1550 1300 stop;
#X msg 1422 1269 1;
#X obj 1491 1420 spigot;
#X msg 1521 1322 0;
#X obj 1536 1398 < 127;
#X obj 1618 1324 >= 127;
#X obj 1545 1275 bng 15 250 50 0 empty empty empty 17 7 0 10 -262144
-1 -1;
#X obj 1482 1453 pack 0 0;
#X obj 1595 1370 spigot;
#X obj 1589 1403 bng 15 250 50 0 empty empty empty 17 7 0 10 -262144
-1 -1;
#X obj 1438 1309 metro 1;
#X obj 775 1331 spigot;
#X obj 727 1289 expr if($f1 < $f2 \, 1 \, 0);
#X obj 775 1310 expr if($f1 == 0 \, 1 \, 0 );
#X obj 840 1362 + 20;
#X obj 745 1362 random 90;
#X obj 1119 1135 bng 15 250 50 0 empty empty Notes_Off 17 7 0 10 -262144
-1 -1;
#X obj 1484 1485 unpack 0 0;
#X obj 169 1193 r section;
#X obj 169 1233 moses 1;
#X obj 169 1209 expr if($f1 == 1 \, 1 \, 0);
#X obj 161 1480 r section;
#X obj 161 1520 moses 1;
#X obj 161 1496 expr if($f1 == 2 \, 1 \, 0);
#X obj 412 1469 bng 30 250 50 0 empty empty empty 17 7 0 10 -258113
-1 -1;
#X msg 991 1261 1;
#X obj 476 1376 bng 15 250 50 0 empty empty empty 17 7 0 10 -262144
-1 -1;
#X obj 1481 1517 noteout 1;
#X obj 181 840 r section;
#X obj 151 2454 cnv 15 1500 300 empty empty PART_6:_Chasing 20 12 0
14 -261682 -66577 0;
#X obj 616 1206 bng 15 250 50 0 empty empty empty 17 7 0 10 -262144
-1 -1;
#X obj 614 1587 random 2;
#X obj 570 1646 print list;
#X obj 566 1624 print random;
#X obj 558 1601 print preList;
#X obj 808 1628 - 1;
#X msg 240 1300 1;
#X obj 312 1583 + 1;
#X floatatom 372 1581 5 0 0 0 - - -;
#X msg 312 1526 1;
#X msg 312 1565 1;
#X msg 364 1551 0;
#X obj 288 1628 spigot;
#X obj 268 1603 expr if($f1 > 127 \, 1 \, 0);
#X msg 399 1628 0;
#X obj 312 1547 metro 0.1;
#X obj 511 1242 metro 0.1;
#X obj 761 1232 metro 0.1;
#X text 250 1672 2 SEND NOTE OFF FOR ALL NOTES;
#X msg 624 1493 66 68 70 73 75 78 80 82 85 87 90 92 94;
#X obj 220 2224 r section;
#X obj 220 2264 moses 1;
#X floatatom 1693 73 5 0 0 0 - - -;
#X floatatom 1736 99 5 0 0 0 - - -;
#X obj 1783 139 s velocity;
#X obj 1693 141 pack 0 0;
#X obj 1897 72 bng 15 250 50 0 empty empty empty 17 7 0 10 -262144
-1 -1;
#X obj 1898 138 s pitch;
#X obj 1726 506 route 20 21 22 23 24 25 26 27 28 29;
#X obj 1819 475 route 30 31 32 33 34 35 36 37 38 39;
#X obj 1940 504 route 40 41 42 43 44 45 46 47 48 49;
#X obj 2053 469 route 50 51 52 53 54 55 56 57 58 59;
#X obj 2170 503 route 60 61 62 63 64 65 66 67 68 69;
#X obj 2294 476 route 70 71 72 73 74 75 76 77 78 79;
#X obj 2419 505 route 80 81 82 83 84 85 86 87 88 89;
#X obj 2513 477 route 90 91 92 93 94 95 96 97 98 99;
#X obj 2360 453 route 100 101 102 103 104 105 106 107 108 109;
#X obj 1744 536 keyR;
#X obj 1756 572 keyR;
#X obj 1767 535 keyR;
#X obj 1776 573 keyR;
#X obj 1794 573 keyR;
#X obj 1805 535 keyR;
#X obj 1815 572 keyR;
#X obj 1827 535 keyR;
#X obj 1836 573 keyR;
#X obj 1856 573 keyR;
#X obj 1866 534 keyR;
#X obj 1876 573 keyR;
#X obj 1887 534 keyR;
#X obj 1896 574 keyR;
#X obj 1905 534 keyR;
#X obj 1914 573 keyR;
#X obj 1934 573 keyR;
#X obj 1945 536 keyR;
#X obj 1954 572 keyR;
#X obj 1965 536 keyR;
#X obj 1974 573 keyR;
#X obj 1994 573 keyR;
#X obj 2004 537 keyR;
#X obj 2014 572 keyR;
#X obj 2024 537 keyR;
#X obj 2034 573 keyR;
#X obj 2044 536 keyR;
#X obj 2054 573 keyR;
#X obj 2074 573 keyR;
#X obj 2084 538 keyR;
#X obj 2094 573 keyR;
#X obj 2104 538 keyR;
#X obj 2114 572 keyR;
#X obj 2134 572 keyR;
#X obj 2145 538 keyR;
#X obj 2154 572 keyR;
#X obj 2165 538 keyR;
#X obj 2174 571 keyR;
#X obj 2184 538 keyR;
#X obj 2194 573 keyR;
#X obj 2214 573 keyR;
#X obj 2224 535 keyR;
#X obj 2234 573 keyR;
#X obj 2242 535 keyR;
#X obj 2254 573 keyR;
#X obj 2272 573 keyR;
#X obj 2284 535 keyR;
#X obj 2292 572 keyR;
#X obj 2304 534 keyR;
#X obj 2312 571 keyR;
#X obj 2324 534 keyR;
#X obj 2332 572 keyR;
#X obj 2352 572 keyR;
#X obj 2362 536 keyR;
#X obj 2372 573 keyR;
#X obj 2382 536 keyR;
#X obj 2392 572 keyR;
#X obj 2410 573 keyR;
#X obj 2419 536 keyR;
#X obj 2430 574 keyR;
#X obj 2439 536 keyR;
#X obj 2450 572 keyR;
#X obj 2460 536 keyR;
#X obj 2470 572 keyR;
#X obj 2488 571 keyR;
#X obj 2499 535 keyR;
#X obj 2508 572 keyR;
#X obj 2519 535 keyR;
#X obj 2528 572 keyR;
#X obj 2548 572 keyR;
#X obj 2559 534 keyR;
#X obj 2568 572 keyR;
#X obj 2579 534 keyR;
#X obj 2588 572 keyR;
#X obj 2599 534 keyR;
#X obj 2608 572 keyR;
#X obj 2339 568 keyR;
#X obj 2350 531 keyR;
#X obj 2359 569 keyR;
#X obj 2370 533 keyR;
#X obj 2379 571 keyR;
#X obj 2401 569 keyR;
#X obj 2411 531 keyR;
#X obj 2421 569 keyR;
#X obj 2431 531 keyR;
#X obj 2441 569 keyR;
#X obj 2451 531 keyR;
#X obj 2461 570 keyR;
#X obj 2481 569 keyR;
#X obj 2491 533 keyR;
#X obj 1730 525 hsl 700 25 0 127 0 0 empty empty empty -2 -8 0 10 -1
-1 -1 0 1;
#X obj 1725 446 hsl 900 45 0 127 0 0 empty empty empty -2 -8 0 10 -1
-1 -1 0 1;
#X obj 2575 572 cnv 15 150 150 empty empty empty 20 12 0 14 -261234
-66577 0;
#X obj 1688 681 bng 15 250 50 0 empty empty empty 17 7 0 10 -262144
-1 -1;
#X obj 2603 646 bng 15 250 50 0 empty empty empty 17 7 0 10 -258699
-1 -1;
#X obj 2603 596 bng 15 250 50 0 empty empty empty 17 7 0 10 -261689
-1 -1;
#X msg 1695 522 color 13;
#X obj 2535 579 vsl 15 128 0 127 0 0 empty empty empty 0 -9 0 10 -225271
-1 -1 0 1;
#X floatatom 1678 434 5 0 0 0 - - -;
#X msg 1678 465 color 22;
#X obj 2542 733 pack 0 1;
#X obj 2626 733 / 127;
#X obj 2576 701 cnv 15 40 20 empty empty % 20 12 0 14 -261682 -66577
0;
#X floatatom 2576 705 5 0 0 0 - - -;
#X obj 1964 203 ctlin 11;
#X text 2630 594 = NORMAL KEY;
#X text 2630 646 = REMAPPED KEY;
#X obj 2651 699 s reset;
#X obj 2647 674 bng 15 250 50 0 empty empty empty 17 7 0 10 -262144
-1 -1;
#X obj 1675 101 bng 15 250 50 0 empty empty empty 17 7 0 10 -262144
-1 -1;
#N canvas 88 98 450 278 (subpatch) 0;
#X array freq 109 float 3;
#A 0 288 0 0 0 0 0 0 0 0 0 0 0 0 0 0 0 0 0 0 249 251 372 293 374 530
312 469 545 474 294 320 465 339 485 473 339 470 491 338 337 485 531
354 507 503 537 486 479 502 357 491 355 466 325 402 489 419 489 274
505 324 518 373 345 592 354 394 361 620 415 371 526 343 615 289 490
393 334 548 497 383 346 465 336 531 557 482 345 511 506 467 334 352
507 314 343 345 343 327 324 318 369 530 504 216 329 316 261 480;
#X coords 20 100 109 0 1100 100 1 20 0;
#X restore 2077 931 graph;
#X obj 1217 2325 array set freq;
#X floatatom 1257 2300 5 0 0 0 - - -;
#X obj 971 2228 array max freq;
#X floatatom 971 2247 5 0 0 0 - - -;
#X floatatom 1048 2318 5 0 0 0 - - -;
#X obj 878 2298 + 1;
#X floatatom 928 2299 5 0 0 0 - - -;
#X msg 867 2242 1;
#X msg 878 2280 1;
#X msg 928 2276 0;
#X obj 833 2317 expr if($f1 > 5 \, 1 \, 0);
#X obj 877 2342 spigot;
#X obj 878 2262 metro 5;
#X obj 1048 2359 array set freq;
#X msg 1048 2339 0;
#X text 849 2403 2 WHEN BANG IS RECEIVED \, LOOK FOR 5 HIGHEST VALUES
FROM FREQ ARRAY \, AND BLOCK THAT KEY;
#X text 1251 2407 3 RESET ARRAY TO ZEROS;
#X obj 973 2317 noteout 1;
#X obj 239 1280 metro 1000;
#X obj 86 1327 nbx 5 14 30 1000 0 0 empty empty trigger_milis 0 -8
0 10 -260097 -1 -1 1000 256;
#X obj 86 1266 loadbang;
#X msg 54 1731 1000;
#X obj 598 2292 + 1;
#X floatatom 648 2293 5 0 0 0 - - -;
#X msg 598 2235 1;
#X msg 598 2274 1;
#X msg 650 2260 0;
#X obj 574 2337 spigot;
#X obj 554 2312 expr if($f1 > 127 \, 1 \, 0);
#X msg 685 2337 0;
#X text 550 2407 Send note off to every key;
#X obj 555 2389 bng 15 250 50 0 empty empty empty 17 7 0 10 -262144
-1 -1;
#X obj 695 2219 bng 15 250 50 0 empty empty empty 17 7 0 10 -262144
-1 -1;
#X obj 590 2255 metro 0.1;
#X msg 1012 2275 1;
#X msg 1217 2255 0 0 0 0 0 0 0 0 0 0 0 0 0 0 0 0 0 0 0 0 0 0 0 0 0
0 0 0 0 0 0 0 0 0 0 0 0 0 0 0 0 0 0 0 0 0 0 0 0 0 0 0 0 0 0 0 0 0 0
0 0 0 0 0 0 0 0 0 0 0 0 0 0 0 0 0 0 0 0 0 0 0 0 0 0 0 0 0 0 0 0 0 0
0 0 0 0 0 0 0 0 0 0 0 0 0 0 0;
#X obj 554 890 metro;
#X msg 554 916 tick;
#X obj 554 867 tgl 15 0 empty empty empty 17 7 0 10 -228856 -1 -1 1
1;
#X obj 553 842 loadbang;
#X obj 595 935 nbx 7 14 -1e+37 1e+37 0 0 empty empty empty 0 -8 0 10
-228856 -1 -1 23.8095 256;
#X obj 595 913 expr 60000 / ($f1 * 24);
#X text 670 932 tick time in ms, f 9;
#X obj 595 890 nbx 3 14 30 500 0 0 empty empty empty 0 -8 0 10 -228856
-1 -1 105 256;
#X text 635 890 BPM;
#X msg 179 928 stop;
#X obj 300 1028 cyclone/midiparse;
#X obj 300 1011 cyclone/midiflush;
#X obj 179 961 b;
#X obj 417 1020 bng 15 250 50 0 empty empty empty 17 7 0 10 -228856
-1 -1;
#X msg 337 961 start;
#X obj 311 961 bng 17 250 50 0 empty empty empty 17 7 0 10 -228856
-1 -1;
#X text 377 962 (same as start 1024);
#X obj 300 1045 unpack;
#X floatatom 300 1062 5 0 0 0 - - -;
#X floatatom 331 1062 5 0 0 0 - - -;
#X msg 219 928 start -1;
#X obj 415 1076 moses 200;
#X floatatom 331 1115 5 0 0 0 - - -;
#X obj 300 994 cyclone/seq main.mid;
#X obj 586 986 + 1;
#X floatatom 614 987 5 0 0 0 - - -;
#X msg 586 967 1;
#X msg 663 969 0;
#X obj 180 906 moses 2;
#X floatatom 695 1015 5 0 0 0 - - -;
#X obj 585 1015 / 290;
#X obj 662 1015 + 1;
#X obj 623 1015 mod 8;
#X obj 218 2364 expr if($f1 == $f2 \, 0 \, 1);
#X msg 507 869 1;
#X text 224 2427 1 COUNTER BANGS EVERY BAR;
#X obj 851 2587 + 1;
#X floatatom 901 2588 5 0 0 0 - - -;
#X msg 851 2531 1;
#X msg 851 2569 1;
#X msg 902 2566 0;
#X obj 793 2643 spigot;
#X obj 793 2681 bng 15 250 50 0 empty empty empty 17 7 0 10 -262144
-1 -1;
#X obj 320 2638 + 1;
#X floatatom 348 2639 5 0 0 0 - - -;
#X msg 280 2610 1;
#X msg 319 2574 0;
#X obj 320 2678 spigot;
#X obj 320 2656 expr if($f1 > $f2 \, 1 \, 0);
#X obj 460 2611 loadbang;
#X msg 460 2630 5;
#X obj 901 2527 loadbang;
#X text 823 2704 Create N random T notes;
#X obj 872 2736 nbx 5 14 -1e+37 1e+37 0 0 empty empty empty 0 -8 0
10 -260097 -1 -1 10 256;
#X obj 312 2736 bng 15 250 50 0 empty empty empty 17 7 0 10 -260097
-1 -1;
#X text 286 2713 Trigger every T seconds (or bang);
#X obj 599 2598 + 1;
#X floatatom 649 2599 5 0 0 0 - - -;
#X msg 599 2540 1;
#X msg 599 2579 1;
#X msg 651 2565 0;
#X obj 594 2647 spigot;
#X obj 555 2618 expr if($f1 > 127 \, 1 \, 0);
#X msg 686 2643 0;
#X text 551 2713 Send note off to every key;
#X obj 855 2650 spigot;
#X obj 807 2608 expr if($f1 < $f2 \, 1 \, 0);
#X obj 855 2629 expr if($f1 == 0 \, 1 \, 0 );
#X obj 920 2681 + 20;
#X obj 249 2511 r section;
#X obj 249 2551 moses 1;
#X msg 1071 2579 1;
#X obj 556 2695 bng 15 250 50 0 empty empty empty 17 7 0 10 -262144
-1 -1;
#X obj 696 2524 bng 15 250 50 0 empty empty empty 17 7 0 10 -262144
-1 -1;
#X msg 320 2619 1;
#X obj 591 2560 metro 0.1;
#X obj 841 2550 metro 0.1;
#X obj 319 2599 metro 1000;
#X obj 167 2634 nbx 5 14 30 1000 0 0 empty empty trigger_milis 0 -8
0 10 -260097 -1 -1 200 256;
#X obj 166 2584 loadbang;
#X text 306 2470 Random notes are pressed around a gravity centre which
is defined by performer played notes;
#X obj 825 2681 random 20;
#X msg 901 2543 10;
#X obj 980 2684 - 5;
#X obj 151 2755 cnv 15 1500 300 empty empty PART_7:_ARPEGGIO_LOCKING
20 12 0 14 -204786 -66577 0;
#X text 820 3024 3 UPDATE LIST;
#X obj 1047 2869 list-delete;
#X obj 969 2869 list-len;
#X floatatom 920 2930 5 0 0 0 - - -;
#X obj 966 2929 prepent set;
#X obj 749 2834 prepent set;
#X msg 838 2833;
#X obj 1373 2906 + 1;
#X floatatom 1447 2903 5 0 0 0 - - -;
#X msg 1373 2850 1;
#X msg 1373 2888 1;
#X msg 1447 2881 0;
#X obj 1372 2950 spigot;
#X msg 1367 2806 70 49 66 58 78 73 75 63 0;
#X obj 1493 2856 list-nth 2;
#X floatatom 1519 2900 5 0 0 0 - - -;
#X obj 1372 2971 bng 15 250 50 0 empty empty empty 17 7 0 10 -262144
-1 -1;
#X obj 1373 2870 metro 5;
#X msg 1541 2921 1;
#X obj 1309 2928 expr if($f1 >= $f2 \, 1 \, 0);
#X text 1347 2992 4 SEND NOTE-ON;
#X obj 872 2858 bng 15 250 50 0 empty empty empty 17 7 0 10 -262144
-1 -1;
#X floatatom 1076 2914 5 0 0 0 - - -;
#X obj 162 2784 r section;
#X obj 162 2824 moses 1;
#X obj 404 2796 bng 30 250 50 0 empty empty empty 17 7 0 10 -258113
-1 -1;
#X obj 892 2877 random 2;
#X obj 828 2947 print list;
#X obj 826 2918 print random;
#X obj 826 2900 print preList;
#X obj 1079 2941 - 1;
#X obj 401 2938 + 1;
#X floatatom 461 2936 5 0 0 0 - - -;
#X msg 401 2881 1;
#X msg 401 2920 1;
#X msg 453 2906 0;
#X obj 377 2983 spigot;
#X obj 357 2958 expr if($f1 > 127 \, 1 \, 0);
#X msg 488 2983 0;
#X obj 401 2902 metro 0.1;
#X text 339 3027 2 SEND NOTE OFF FOR ALL NOTES;
#X msg 754 2810 66 68 70 73 75 78 80 82 85 87 90 92 94;
#X obj 1668 3159 notein;
#X obj 1667 3195 noteout 1;
#X obj 749 2864 list-nth;
#X floatatom 748 2896 5 0 0 0 - - -;
#X obj 747 2965 list-insert;
#X obj 768 2924 loadbang;
#X msg 768 2939 0;
#X obj 747 2995 prepent set;
#X obj 826 2981 list;
#X obj 665 2876 prepent set;
#X msg 668 2899 0;
#X obj 151 1752 cnv 15 1200 300 empty empty PART_3:_GLISSANDO 20 12
0 14 -204786 -66577 0;
#X obj 179 1816 r section;
#X obj 179 1848 moses 1;
#X obj 430 1805 bng 30 250 50 0 empty empty empty 17 7 0 10 -258113
-1 -1;
#X obj 377 1940 + 1;
#X floatatom 437 1938 5 0 0 0 - - -;
#X msg 377 1883 1;
#X msg 377 1922 1;
#X msg 437 1922 0;
#X obj 353 1985 spigot;
#X msg 464 1985 0;
#X obj 179 1832 expr if($f1 == 3 \, 1 \, 0);
#X obj 377 1904 metro 1000;
#X floatatom 480 1849 5 0 0 0 - - -;
#X obj 455 1861 bng 15 250 50 0 empty empty empty 17 7 0 10 -262144
-1 -1;
#X floatatom 533 1844 5 0 0 0 - - -;
#X obj 586 1853 prepent set;
#X obj 519 1950 makenote 30 100;
#X obj 533 1867 / 1.11;
#X msg 480 1817 500;
#X obj 730 1867 list-nth;
#X obj 333 1960 expr if($f1 > 40 \, 1 \, 0);
#X msg 730 1780 111 109 106 104 102 99 97 94 92 90 87 85 82 80 78 75
73 70 68 66 63 61 58 56 54 51 49 46 44 42 39 37 34 32 30 27 25 22 20
;
#X obj 151 2053 cnv 15 1500 100 empty empty PART_4:_IMPROVISATION_RH
20 12 0 14 -203904 -66577 0;
#X obj 220 2240 expr if($f1 == 5 \, 1 \, 0);
#X obj 249 2527 expr if($f1 == 6 \, 1 \, 0);
#X obj 162 2800 expr if($f1 == 7 \, 1 \, 0);
#X obj 150 3055 cnv 15 1200 300 empty empty PART_8:_ARPEGGIO_UNLOCKING
20 12 0 14 -261234 -66577 0;
#X text 738 3310 3 UPDATE LIST;
#X obj 741 3212 list-delete;
#X obj 745 3181 list-len;
#X floatatom 696 3242 5 0 0 0 - - -;
#X obj 742 3241 prepent set;
#X obj 615 3132 prepent set;
#X msg 694 3132;
#X obj 1011 3147 prepent set;
#X obj 1026 3226 + 1;
#X floatatom 1076 3226 5 0 0 0 - - -;
#X msg 1026 3170 1;
#X msg 1026 3208 1;
#X msg 1076 3204 0;
#X obj 1025 3270 spigot;
#X msg 1058 3169 66;
#X obj 1148 3205 list-nth 2;
#X floatatom 1148 3223 5 0 0 0 - - -;
#X obj 1025 3291 bng 15 250 50 0 empty empty empty 17 7 0 10 -262144
-1 -1;
#X obj 1026 3190 metro 5;
#X msg 1170 3244 1;
#X obj 962 3248 expr if($f1 >= $f2 \, 1 \, 0);
#X text 1000 3312 4 SEND NOTE-ON;
#X obj 648 3170 bng 15 250 50 0 empty empty empty 17 7 0 10 -262144
-1 -1;
#X floatatom 852 3226 5 0 0 0 - - -;
#X obj 161 3084 r section;
#X obj 161 3124 moses 1;
#X obj 412 3073 bng 30 250 50 0 empty empty empty 17 7 0 10 -258113
-1 -1;
#X obj 661 3212 random 2;
#X obj 617 3271 print list;
#X obj 613 3249 print random;
#X obj 605 3226 print preList;
#X obj 855 3253 - 1;
#X obj 359 3208 + 1;
#X floatatom 419 3206 5 0 0 0 - - -;
#X msg 359 3151 1;
#X msg 359 3190 1;
#X msg 411 3176 0;
#X obj 335 3253 spigot;
#X obj 315 3228 expr if($f1 > 127 \, 1 \, 0);
#X msg 446 3253 0;
#X obj 359 3172 metro 0.1;
#X text 297 3297 2 SEND NOTE OFF FOR ALL NOTES;
#X msg 624 3097 66 68 70 73 75 78 80 82 85 87 90 92 94;
#X obj 161 3100 expr if($f1 == 8 \, 1 \, 0);
#X floatatom 226 417 5 0 0 0 - - -;
#X obj 182 861 expr if($f1 == 4 || $f1 == 5 \, 66 \, 200);
#X obj 181 884 expr if($f1 == 4 || $f1 == 5 \, 1 \, 10);
#X obj 552 1044 expr if($f1 == 5 \, 1 \, 0);
#X obj 551 1069 spigot;
#X obj 1286 2898 list-len;
#X obj 751 800 cnv 15 600 350 empty empty MIDI_READ2 20 12 0 14 -262130
-66577 0;
#X obj 1152 1084 s bar;
#X obj 782 834 r section;
#X obj 1155 884 metro;
#X msg 1155 910 tick;
#X obj 1155 861 tgl 15 0 empty empty empty 17 7 0 10 -228856 -1 -1
1 1;
#X obj 1154 836 loadbang;
#X obj 1196 929 nbx 7 14 -1e+37 1e+37 0 0 empty empty empty 0 -8 0
10 -228856 -1 -1 13.8889 256;
#X obj 1196 907 expr 60000 / ($f1 * 24);
#X text 1271 926 tick time in ms, f 9;
#X obj 1196 884 nbx 3 14 30 240 0 0 empty empty empty 0 -8 0 10 -228856
-1 -1 180 256;
#X text 1236 884 BPM;
#X msg 780 922 stop;
#X obj 961 1019 cyclone/midiparse;
#X obj 962 1002 cyclone/midiflush;
#X obj 780 942 b;
#X msg 938 955 start;
#X obj 912 955 bng 17 250 50 0 empty empty empty 17 7 0 10 -228856
-1 -1;
#X text 978 956 (same as start 1024);
#X obj 961 1036 unpack;
#X floatatom 960 1055 5 0 0 0 - - -;
#X floatatom 992 1053 5 0 0 0 - - -;
#X msg 820 922 start -1;
#X obj 1187 980 + 1;
#X floatatom 1215 981 5 0 0 0 - - -;
#X msg 1187 961 1;
#X msg 1264 963 0;
#X obj 781 900 moses 2;
#X floatatom 1296 1009 5 0 0 0 - - -;
#X obj 1186 1009 / 290;
#X obj 1263 1009 + 1;
#X obj 1224 1009 mod 8;
#X msg 1108 863 1;
#X obj 1153 1038 expr if($f1 == 5 \, 1 \, 0);
#X obj 1152 1063 spigot;
#X obj 961 985 cyclone/seq Latin_Twiggle.mid;
#X obj 150 3356 cnv 15 1200 100 empty empty PART_9:_LATIN_TWIGGLE 20
12 0 14 -204800 -66577 0;
#X obj 150 3456 cnv 15 1200 100 empty empty PART_10:_ONE_NOTE_IMPRO
20 12 0 14 -232576 -66577 0;
#X obj 1220 359 vsl 15 128 30 1000 0 0 empty empty empty 0 -9 0 10
-262144 -1 -1 12700 1;
#X obj 41 940 s sec1;
#X obj 56 1685 r sec1;
#X obj 103 1527 r sec2;
#X obj 366 314 bng 30 250 50 0 empty empty empty 17 7 0 10 -258113
-1 -1;
#X obj 41 958 s sec2;
#X obj 744 1928 abs;
#X floatatom 744 1960 5 0 0 0 - - -;
#X obj 744 1906 - 120;
#X obj 783 855 expr if($f1 == 9 \, 66 \, 200);
#X obj 784 879 expr if($f1 == 9 \, 1 \, 10);
#X obj 1454 358 vsl 15 128 105 1000 0 0 empty empty empty 0 -9 0 10
-262144 -1 -1 0 1;
#X obj 44 1015 s sec6;
#X obj 104 2570 r sec6;
#X msg 167 2605 200;
#X obj 1509 358 vsl 15 128 30 200 0 0 empty empty empty 0 -9 0 10 -262144
-1 -1 12700 1;
#X obj 1524 358 vsl 15 128 1 10 0 0 empty empty empty 0 -9 0 10 -262144
-1 -1 12700 1;
#X obj 45 1032 s sec62;
#X obj 1352 285 loadbang;
#X msg 1382 315 200;
#X msg 1306 314 1000;
#X obj 665 316 bng 30 250 50 0 empty empty empty 17 7 0 10 -258113
-1 -1;
#X obj 42 1063 s sec7;
#X obj 104 2811 r sec7;
#X obj 724 316 bng 30 250 50 0 empty empty empty 17 7 0 10 -258113
-1 -1;
#X obj 43 1081 s sec8;
#X obj 98 3183 r sec8;
#X obj 95 2639 r sec62;
#X msg 1413 316 10;
#X obj 1444 1588 noteout 1;
#X msg 755 2785 49 56 58 63 66 70 73 75 78;
#X msg 617 3069 49 56 58 63 66 70 73 75 78;
#X text 232 332 PEDAL!!!;
#X msg 595 869 105;
#X obj 981 2661 notein 2;
#X obj 1556 76 notein 2;
#X obj 239 3612 noteout 1;
#X obj 239 3589 notein 17;
#X obj 1527 1699 s velLatin;
#X obj 1452 1700 s noteLatin;
#X obj 1574 182 r noteLatin;
#X obj 1578 219 r velLatin;
#X obj 777 1061 cyclone/midiparse;
#X obj 777 1044 cyclone/midiflush;
#X obj 777 1078 unpack;
#X floatatom 777 1095 5 0 0 0 - - -;
#X floatatom 808 1095 5 0 0 0 - - -;
#X obj 777 1027 cyclone/seq Latin_Twiggle.mid;
#X msg 779 1004 start -1;
#X obj 825 943 bng 15 250 50 0 empty empty empty 17 7 0 10 -262144
-1 -1;
#X msg 1196 863 180;
#X floatatom 229 1046 5 0 0 0 - - -;
#X floatatom 416 1113 5 0 0 0 - - -;
#X obj 835 970 delay 500 1 msec;
#X obj 857 1003 bng 15 250 50 0 empty empty empty 17 7 0 10 -262144
-1 -1;
#X obj 1731 507 hsl 700 25 0 127 0 0 empty empty empty -2 -8 0 10 -1
-1 -1 0 1;
#X obj 1729 558 hsl 1280 45 0 127 0 0 empty empty empty -2 -8 0 10
-1 -1 -1 0 1;
#X obj 1730 514 hsl 900 45 0 127 0 0 empty empty empty -2 -8 0 10 -1
-1 -1 0 1;
#X obj 1740 524 hsl 900 45 0 127 0 0 empty empty empty -2 -8 0 10 -1
-1 -1 0 1;
#X obj 1922 505 hsl 900 45 0 127 0 0 empty empty empty -2 -8 0 10 -1
-1 -1 0 1;
#X obj 1922 546 hsl 900 45 0 127 0 0 empty empty empty -2 -8 0 10 -1
-1 -1 0 1;
#X obj 1731 557 hsl 900 45 0 127 0 0 empty empty empty -2 -8 0 10 -1
-1 -1 0 1;
#X msg 1348 315 105;
#X connect 1 0 2 0;
#X connect 1 0 498 0;
#X connect 4 0 7 0;
#X connect 6 0 8 0;
#X connect 6 0 9 0;
#X connect 7 0 276 0;
#X connect 8 0 321 0;
#X connect 9 0 321 1;
#X connect 12 0 13 0;
#X connect 13 0 12 1;
#X connect 13 0 86 0;
#X connect 14 0 121 0;
#X connect 15 0 12 0;
#X connect 16 0 13 0;
#X connect 16 0 121 0;
#X connect 17 0 18 0;
#X connect 18 0 89 0;
#X connect 20 0 21 0;
#X connect 21 0 20 1;
#X connect 21 0 25 0;
#X connect 22 0 36 0;
#X connect 22 0 270 0;
#X connect 23 0 21 0;
#X connect 23 0 270 0;
#X connect 24 0 23 0;
#X connect 24 0 36 0;
#X connect 24 0 22 0;
#X connect 25 0 24 1;
#X connect 25 0 24 0;
#X connect 26 0 27 0;
#X connect 27 0 25 1;
#X connect 28 0 29 0;
#X connect 29 0 31 0;
#X connect 31 0 86 1;
#X connect 32 0 14 0;
#X connect 34 0 35 0;
#X connect 35 0 34 1;
#X connect 35 0 40 0;
#X connect 35 0 41 0;
#X connect 35 0 571 0;
#X connect 35 0 581 0;
#X connect 36 0 120 0;
#X connect 37 0 34 0;
#X connect 38 0 35 0;
#X connect 38 0 14 0;
#X connect 38 0 104 0;
#X connect 38 0 120 0;
#X connect 39 0 38 0;
#X connect 39 0 100 0;
#X connect 40 0 39 1;
#X connect 40 0 39 0;
#X connect 41 0 571 1;
#X connect 41 0 580 0;
#X connect 46 0 49 0;
#X connect 46 0 56 0;
#X connect 46 0 106 0;
#X connect 47 0 66 1;
#X connect 47 0 70 0;
#X connect 49 0 52 0;
#X connect 50 0 51 0;
#X connect 50 0 98 0;
#X connect 51 0 52 0;
#X connect 51 0 60 0;
#X connect 52 0 69 0;
#X connect 52 0 53 0;
#X connect 52 0 108 0;
#X connect 52 0 47 0;
#X connect 52 0 46 0;
#X connect 53 0 60 0;
#X connect 54 0 55 0;
#X connect 55 0 54 1;
#X connect 55 0 61 1;
#X connect 55 0 66 0;
#X connect 55 0 60 0;
#X connect 56 0 64 0;
#X connect 57 0 54 0;
#X connect 58 0 55 0;
#X connect 58 0 64 0;
#X connect 59 0 58 0;
#X connect 59 0 63 0;
#X connect 60 0 61 0;
#X connect 61 0 62 0;
#X connect 62 0 65 0;
#X connect 62 0 571 0;
#X connect 62 0 581 0;
#X connect 64 0 57 0;
#X connect 65 0 571 1;
#X connect 65 0 580 0;
#X connect 66 0 59 1;
#X connect 66 0 59 0;
#X connect 69 0 105 0;
#X connect 70 0 109 0;
#X connect 71 0 73 0;
#X connect 72 0 71 0;
#X connect 73 0 81 0;
#X connect 73 0 78 0;
#X connect 73 0 79 0;
#X connect 73 0 76 0;
#X connect 74 0 84 0;
#X connect 75 0 77 0;
#X connect 75 0 84 0;
#X connect 76 0 71 1;
#X connect 77 0 71 1;
#X connect 77 0 73 0;
#X connect 78 0 76 1;
#X connect 79 0 82 1;
#X connect 79 0 82 0;
#X connect 80 0 77 0;
#X connect 81 0 91 0;
#X connect 82 0 74 0;
#X connect 82 0 83 0;
#X connect 84 0 72 0;
#X connect 85 0 16 0;
#X connect 86 0 17 1;
#X connect 86 0 17 0;
#X connect 86 0 87 0;
#X connect 87 0 85 1;
#X connect 87 0 85 0;
#X connect 88 0 99 0;
#X connect 88 0 571 0;
#X connect 88 0 581 0;
#X connect 89 0 88 0;
#X connect 90 0 75 0;
#X connect 91 0 101 0;
#X connect 91 0 581 0;
#X connect 91 1 101 1;
#X connect 91 1 580 0;
#X connect 92 0 94 0;
#X connect 93 0 23 0;
#X connect 93 1 22 0;
#X connect 93 1 273 0;
#X connect 94 0 93 0;
#X connect 95 0 97 0;
#X connect 96 1 50 0;
#X connect 97 0 96 0;
#X connect 98 0 113 0;
#X connect 99 0 571 1;
#X connect 99 0 580 0;
#X connect 102 0 499 0;
#X connect 102 0 500 0;
#X connect 102 0 501 0;
#X connect 105 0 48 0;
#X connect 105 0 46 1;
#X connect 105 0 107 0;
#X connect 109 0 105 1;
#X connect 110 0 20 0;
#X connect 111 0 112 0;
#X connect 112 0 111 1;
#X connect 112 0 117 0;
#X connect 112 0 118 0;
#X connect 112 0 571 0;
#X connect 112 0 581 0;
#X connect 113 0 119 0;
#X connect 114 0 111 0;
#X connect 115 0 112 0;
#X connect 115 0 119 0;
#X connect 116 0 115 0;
#X connect 116 0 52 0;
#X connect 117 0 116 1;
#X connect 117 0 116 0;
#X connect 118 0 571 1;
#X connect 118 0 580 0;
#X connect 119 0 114 0;
#X connect 120 0 37 0;
#X connect 121 0 15 0;
#X connect 123 0 51 0;
#X connect 124 0 450 0;
#X connect 126 0 129 0;
#X connect 127 0 129 1;
#X connect 129 0 132 0;
#X connect 129 0 133 0;
#X connect 129 0 134 0;
#X connect 129 0 135 0;
#X connect 129 0 136 0;
#X connect 129 0 137 0;
#X connect 129 0 138 0;
#X connect 129 0 139 0;
#X connect 129 0 140 0;
#X connect 132 0 141 0;
#X connect 132 1 142 0;
#X connect 132 2 143 0;
#X connect 132 3 144 0;
#X connect 132 4 145 0;
#X connect 132 5 146 0;
#X connect 132 6 147 0;
#X connect 132 7 148 0;
#X connect 132 8 149 0;
#X connect 132 9 150 0;
#X connect 133 0 151 0;
#X connect 133 1 152 0;
#X connect 133 2 153 0;
#X connect 133 3 154 0;
#X connect 133 4 155 0;
#X connect 133 5 156 0;
#X connect 133 6 157 0;
#X connect 133 7 158 0;
#X connect 133 8 159 0;
#X connect 133 9 160 0;
#X connect 134 0 161 0;
#X connect 134 1 162 0;
#X connect 134 2 163 0;
#X connect 134 3 164 0;
#X connect 134 4 165 0;
#X connect 134 5 166 0;
#X connect 134 6 167 0;
#X connect 134 7 168 0;
#X connect 134 8 169 0;
#X connect 134 9 170 0;
#X connect 135 0 171 0;
#X connect 135 1 172 0;
#X connect 135 2 173 0;
#X connect 135 3 174 0;
#X connect 135 4 175 0;
#X connect 135 5 176 0;
#X connect 135 6 177 0;
#X connect 135 7 178 0;
#X connect 135 8 179 0;
#X connect 135 9 180 0;
#X connect 136 0 181 0;
#X connect 136 1 182 0;
#X connect 136 2 183 0;
#X connect 136 3 184 0;
#X connect 136 4 185 0;
#X connect 136 5 186 0;
#X connect 136 6 187 0;
#X connect 136 7 188 0;
#X connect 136 8 189 0;
#X connect 136 9 190 0;
#X connect 137 0 191 0;
#X connect 137 1 192 0;
#X connect 137 2 193 0;
#X connect 137 3 194 0;
#X connect 137 4 195 0;
#X connect 137 5 196 0;
#X connect 137 6 197 0;
#X connect 137 7 198 0;
#X connect 137 8 199 0;
#X connect 137 9 200 0;
#X connect 138 0 201 0;
#X connect 138 1 202 0;
#X connect 138 2 203 0;
#X connect 138 3 204 0;
#X connect 138 4 205 0;
#X connect 138 5 206 0;
#X connect 138 6 207 0;
#X connect 138 7 208 0;
#X connect 138 8 209 0;
#X connect 138 9 210 0;
#X connect 139 0 211 0;
#X connect 139 1 212 0;
#X connect 139 2 213 0;
#X connect 139 3 214 0;
#X connect 139 4 215 0;
#X connect 139 5 216 0;
#X connect 139 6 217 0;
#X connect 139 7 218 0;
#X connect 139 8 219 0;
#X connect 139 9 220 0;
#X connect 140 0 221 0;
#X connect 140 1 222 0;
#X connect 140 2 223 0;
#X connect 140 3 224 0;
#X connect 140 4 225 0;
#X connect 140 5 226 0;
#X connect 140 6 227 0;
#X connect 140 7 228 0;
#X connect 140 8 229 0;
#X connect 140 9 230 0;
#X connect 237 0 235 0;
#X connect 238 0 241 0;
#X connect 238 0 242 0;
#X connect 239 0 240 0;
#X connect 240 0 232 0;
#X connect 249 0 248 0;
#X connect 253 0 252 1;
#X connect 254 0 255 0;
#X connect 254 1 256 0;
#X connect 254 1 286 0;
#X connect 254 1 269 0;
#X connect 254 1 581 0;
#X connect 256 0 265 1;
#X connect 256 0 266 0;
#X connect 257 0 258 0;
#X connect 258 0 257 1;
#X connect 258 0 262 0;
#X connect 259 0 264 0;
#X connect 260 0 257 0;
#X connect 261 0 258 0;
#X connect 261 0 264 0;
#X connect 262 0 263 1;
#X connect 262 0 263 0;
#X connect 263 0 261 0;
#X connect 263 0 287 0;
#X connect 264 0 254 0;
#X connect 264 0 260 0;
#X connect 266 0 265 0;
#X connect 270 0 110 0;
#X connect 271 0 270 1;
#X connect 272 0 273 0;
#X connect 273 0 271 0;
#X connect 274 0 275 0;
#X connect 275 0 274 1;
#X connect 275 0 280 0;
#X connect 275 0 281 0;
#X connect 275 0 571 0;
#X connect 275 0 581 0;
#X connect 276 0 285 0;
#X connect 277 0 274 0;
#X connect 278 0 275 0;
#X connect 278 0 284 0;
#X connect 278 0 285 0;
#X connect 278 0 259 0;
#X connect 279 0 278 0;
#X connect 279 0 283 0;
#X connect 280 0 279 1;
#X connect 280 0 279 0;
#X connect 281 0 571 1;
#X connect 281 0 580 0;
#X connect 285 0 277 0;
#X connect 286 0 269 1;
#X connect 286 0 580 0;
#X connect 287 0 252 0;
#X connect 288 0 289 0;
#X connect 289 0 311 0;
#X connect 289 0 314 0;
#X connect 290 0 288 0;
#X connect 291 0 290 0;
#X connect 291 0 575 0;
#X connect 292 0 288 1;
#X connect 293 0 292 0;
#X connect 295 0 293 0;
#X connect 297 0 300 0;
#X connect 297 0 311 0;
#X connect 297 0 315 0;
#X connect 297 0 288 0;
#X connect 298 0 305 0;
#X connect 299 0 298 0;
#X connect 300 0 299 0;
#X connect 301 0 308 0;
#X connect 302 0 311 0;
#X connect 303 0 311 0;
#X connect 305 0 306 0;
#X connect 305 1 307 0;
#X connect 306 0 309 0;
#X connect 307 0 310 0;
#X connect 308 0 311 0;
#X connect 308 0 315 0;
#X connect 308 0 322 0;
#X connect 309 0 571 0;
#X connect 309 0 594 0;
#X connect 310 0 571 1;
#X connect 311 0 299 0;
#X connect 311 1 301 0;
#X connect 312 0 313 0;
#X connect 312 0 318 0;
#X connect 313 0 312 1;
#X connect 314 0 312 0;
#X connect 315 0 313 0;
#X connect 316 0 308 0;
#X connect 316 1 297 0;
#X connect 317 0 502 0;
#X connect 318 0 320 0;
#X connect 319 0 317 0;
#X connect 320 0 319 0;
#X connect 321 0 4 1;
#X connect 321 0 4 0;
#X connect 322 0 288 0;
#X connect 324 0 325 0;
#X connect 325 0 324 1;
#X connect 325 0 354 0;
#X connect 326 0 364 0;
#X connect 327 0 324 0;
#X connect 328 0 325 0;
#X connect 328 0 364 0;
#X connect 329 0 330 0;
#X connect 330 0 369 0;
#X connect 331 0 332 0;
#X connect 332 0 331 1;
#X connect 332 0 336 0;
#X connect 333 0 346 0;
#X connect 333 0 365 0;
#X connect 334 0 332 0;
#X connect 334 0 365 0;
#X connect 335 0 334 0;
#X connect 335 0 346 0;
#X connect 335 0 333 0;
#X connect 336 0 335 1;
#X connect 336 0 335 0;
#X connect 337 0 338 0;
#X connect 338 0 336 1;
#X connect 339 0 370 0;
#X connect 341 0 354 1;
#X connect 342 0 326 0;
#X connect 344 0 345 0;
#X connect 345 0 344 1;
#X connect 345 0 350 0;
#X connect 345 0 351 0;
#X connect 345 0 571 0;
#X connect 345 0 581 0;
#X connect 346 0 363 0;
#X connect 347 0 344 0;
#X connect 348 0 345 0;
#X connect 348 0 326 0;
#X connect 348 0 361 0;
#X connect 348 0 363 0;
#X connect 349 0 348 0;
#X connect 349 0 360 0;
#X connect 350 0 349 1;
#X connect 350 0 349 0;
#X connect 351 0 571 1;
#X connect 351 0 580 0;
#X connect 353 0 328 0;
#X connect 354 0 329 1;
#X connect 354 0 329 0;
#X connect 354 0 355 0;
#X connect 355 0 353 1;
#X connect 355 0 353 0;
#X connect 356 0 359 0;
#X connect 356 0 571 0;
#X connect 356 0 581 0;
#X connect 357 0 451 0;
#X connect 358 0 334 0;
#X connect 358 1 333 0;
#X connect 358 1 556 0;
#X connect 359 0 571 1;
#X connect 359 0 580 0;
#X connect 362 0 331 0;
#X connect 363 0 347 0;
#X connect 364 0 327 0;
#X connect 365 0 362 0;
#X connect 366 0 365 1;
#X connect 367 0 556 0;
#X connect 369 0 356 0;
#X connect 370 0 341 0;
#X connect 371 0 356 1;
#X connect 374 0 377 0;
#X connect 374 0 400 0;
#X connect 375 0 395 0;
#X connect 377 0 379 0;
#X connect 378 0 379 0;
#X connect 379 0 394 0;
#X connect 379 0 402 0;
#X connect 379 0 375 0;
#X connect 379 0 374 0;
#X connect 379 0 417 0;
#X connect 380 0 381 0;
#X connect 381 0 380 1;
#X connect 381 0 387 1;
#X connect 381 0 392 0;
#X connect 381 0 386 0;
#X connect 382 0 390 0;
#X connect 383 0 380 0;
#X connect 384 0 381 0;
#X connect 384 0 390 0;
#X connect 385 0 384 0;
#X connect 385 0 389 0;
#X connect 386 0 503 0;
#X connect 386 0 387 0;
#X connect 387 0 388 0;
#X connect 388 0 391 0;
#X connect 388 0 571 0;
#X connect 388 0 581 0;
#X connect 390 0 383 0;
#X connect 391 0 571 1;
#X connect 391 0 580 0;
#X connect 392 0 385 1;
#X connect 392 0 385 0;
#X connect 394 0 399 0;
#X connect 395 0 403 0;
#X connect 396 0 452 0;
#X connect 397 1 406 0;
#X connect 397 1 572 0;
#X connect 398 0 379 0;
#X connect 399 0 376 0;
#X connect 399 0 374 1;
#X connect 399 0 401 0;
#X connect 399 0 417 1;
#X connect 403 0 399 1;
#X connect 404 0 405 0;
#X connect 405 0 404 1;
#X connect 405 0 410 0;
#X connect 405 0 411 0;
#X connect 405 0 571 0;
#X connect 405 0 581 0;
#X connect 406 0 412 0;
#X connect 407 0 404 0;
#X connect 408 0 405 0;
#X connect 408 0 412 0;
#X connect 409 0 408 0;
#X connect 410 0 409 1;
#X connect 410 0 409 0;
#X connect 411 0 571 1;
#X connect 411 0 580 0;
#X connect 412 0 407 0;
#X connect 414 0 378 0;
#X connect 414 0 425 0;
#X connect 417 0 418 0;
#X connect 418 0 419 0;
#X connect 419 0 422 0;
#X connect 419 0 423 0;
#X connect 419 0 382 0;
#X connect 420 0 421 0;
#X connect 421 0 419 1;
#X connect 422 0 386 0;
#X connect 423 0 419 2;
#X connect 424 0 386 0;
#X connect 425 0 424 0;
#X connect 425 0 423 0;
#X connect 427 0 437 0;
#X connect 428 1 432 0;
#X connect 429 0 432 0;
#X connect 430 0 431 0;
#X connect 431 0 430 1;
#X connect 431 0 436 0;
#X connect 431 0 440 0;
#X connect 431 0 446 1;
#X connect 431 0 448 0;
#X connect 431 0 447 0;
#X connect 432 0 438 0;
#X connect 432 0 445 0;
#X connect 433 0 430 0;
#X connect 434 0 431 0;
#X connect 434 0 438 0;
#X connect 435 0 434 0;
#X connect 437 0 428 0;
#X connect 438 0 433 0;
#X connect 439 0 444 0;
#X connect 440 0 441 0;
#X connect 441 0 438 1;
#X connect 441 0 444 0;
#X connect 442 0 441 0;
#X connect 443 0 571 0;
#X connect 443 0 581 0;
#X connect 443 1 571 1;
#X connect 443 1 580 0;
#X connect 444 0 442 0;
#X connect 445 0 438 1;
#X connect 445 0 439 0;
#X connect 446 0 443 0;
#X connect 446 0 550 0;
#X connect 447 0 435 1;
#X connect 447 0 435 0;
#X connect 448 0 446 0;
#X connect 450 0 125 0;
#X connect 451 0 358 0;
#X connect 452 0 397 0;
#X connect 455 0 458 0;
#X connect 455 0 464 0;
#X connect 455 0 482 0;
#X connect 456 0 474 1;
#X connect 456 0 477 0;
#X connect 458 0 460 0;
#X connect 459 0 460 0;
#X connect 459 0 468 0;
#X connect 460 0 476 0;
#X connect 460 0 461 0;
#X connect 460 0 484 0;
#X connect 460 0 456 0;
#X connect 460 0 455 0;
#X connect 461 0 468 0;
#X connect 462 0 463 0;
#X connect 463 0 462 1;
#X connect 463 0 469 1;
#X connect 463 0 474 0;
#X connect 463 0 468 0;
#X connect 464 0 472 0;
#X connect 465 0 462 0;
#X connect 466 0 463 0;
#X connect 466 0 472 0;
#X connect 467 0 466 0;
#X connect 467 0 471 0;
#X connect 468 0 469 0;
#X connect 469 0 470 0;
#X connect 470 0 473 0;
#X connect 470 0 571 0;
#X connect 470 0 581 0;
#X connect 472 0 465 0;
#X connect 473 0 571 1;
#X connect 473 0 580 0;
#X connect 474 0 467 1;
#X connect 474 0 467 0;
#X connect 476 0 481 0;
#X connect 477 0 485 0;
#X connect 478 0 497 0;
#X connect 479 1 573 0;
#X connect 480 0 488 0;
#X connect 481 0 457 0;
#X connect 481 0 455 1;
#X connect 481 0 483 0;
#X connect 485 0 481 1;
#X connect 486 0 487 0;
#X connect 487 0 486 1;
#X connect 487 0 492 0;
#X connect 487 0 493 0;
#X connect 487 0 571 0;
#X connect 487 0 581 0;
#X connect 488 0 494 0;
#X connect 489 0 486 0;
#X connect 490 0 487 0;
#X connect 490 0 494 0;
#X connect 491 0 490 0;
#X connect 491 0 460 0;
#X connect 492 0 491 1;
#X connect 492 0 491 0;
#X connect 493 0 571 1;
#X connect 493 0 580 0;
#X connect 494 0 489 0;
#X connect 496 0 459 0;
#X connect 497 0 479 0;
#X connect 499 0 593 0;
#X connect 500 0 316 0;
#X connect 501 0 502 1;
#X connect 502 0 5 0;
#X connect 503 0 392 1;
#X connect 506 0 537 0;
#X connect 506 0 551 0;
#X connect 506 0 552 0;
#X connect 507 0 508 0;
#X connect 508 0 529 0;
#X connect 508 0 539 0;
#X connect 508 0 589 0;
#X connect 509 0 507 0;
#X connect 510 0 509 0;
#X connect 510 0 592 0;
#X connect 511 0 507 1;
#X connect 512 0 511 0;
#X connect 514 0 512 0;
#X connect 516 0 519 0;
#X connect 516 0 530 0;
#X connect 516 0 507 0;
#X connect 516 0 539 0;
#X connect 517 0 523 0;
#X connect 518 0 517 0;
#X connect 519 0 518 0;
#X connect 519 0 585 0;
#X connect 520 0 539 0;
#X connect 521 0 539 0;
#X connect 523 0 524 0;
#X connect 523 1 525 0;
#X connect 524 0 571 0;
#X connect 525 0 571 1;
#X connect 526 0 530 0;
#X connect 526 0 536 0;
#X connect 526 0 539 0;
#X connect 526 0 591 0;
#X connect 527 0 528 0;
#X connect 527 0 533 0;
#X connect 528 0 527 1;
#X connect 529 0 527 0;
#X connect 530 0 528 0;
#X connect 531 0 526 0;
#X connect 531 1 516 0;
#X connect 532 0 538 0;
#X connect 533 0 535 0;
#X connect 534 0 532 0;
#X connect 535 0 534 0;
#X connect 536 0 507 0;
#X connect 537 0 538 1;
#X connect 538 0 505 0;
#X connect 539 0 518 0;
#X connect 542 0 543 0;
#X connect 544 0 271 0;
#X connect 545 0 98 0;
#X connect 546 0 547 0;
#X connect 548 0 549 0;
#X connect 549 0 443 1;
#X connect 550 0 548 0;
#X connect 552 0 531 0;
#X connect 553 0 295 0;
#X connect 555 0 366 0;
#X connect 556 0 366 0;
#X connect 557 0 554 0;
#X connect 558 0 559 0;
#X connect 560 0 604 0;
#X connect 560 0 561 0;
#X connect 560 0 570 0;
#X connect 560 0 562 0;
#X connect 561 0 557 0;
#X connect 562 0 542 0;
#X connect 563 0 564 0;
#X connect 565 0 398 0;
#X connect 566 0 567 0;
#X connect 568 0 480 0;
#X connect 569 0 341 0;
#X connect 570 0 558 0;
#X connect 572 0 378 0;
#X connect 572 0 398 0;
#X connect 572 0 425 0;
#X connect 573 0 459 0;
#X connect 573 0 480 0;
#X connect 575 0 295 0;
#X connect 576 0 371 0;
#X connect 577 0 130 0;
#X connect 577 0 131 0;
#X connect 577 0 126 0;
#X connect 577 1 128 0;
#X connect 577 1 127 0;
#X connect 579 0 578 0;
#X connect 579 0 581 0;
#X connect 579 1 578 1;
#X connect 579 1 580 0;
#X connect 582 0 129 0;
#X connect 582 0 131 0;
#X connect 583 0 129 1;
#X connect 583 0 128 0;
#X connect 584 0 586 0;
#X connect 585 0 584 0;
#X connect 586 0 587 0;
#X connect 586 1 588 0;
#X connect 587 0 581 0;
#X connect 588 0 580 0;
#X connect 589 0 585 0;
#X connect 590 0 589 0;
#X connect 591 0 595 0;
#X connect 592 0 514 0;
#X connect 593 0 309 1;
#X connect 595 0 596 0;
#X connect 596 0 590 0;
#X connect 604 0 553 0;
#X coords 0 -10 1 1 1100 230 2 75 500;
