#N canvas 177 270 1371 655 10;
#X obj 158 11 inlet;
#X obj 102 104 vsl 18 138 0 127 0 0 empty empty empty 0 -9 0 10 -257983
-1 -1 0 1;
#X obj -13 888 bng 15 250 50 0 empty empty empty 17 7 0 10 -262144
-1 -1;
#X obj 939 19 cnv 15 300 200 empty empty RGB_TO_PDCOLOR 20 12 0 14
-233017 -66577 0;
#X obj 957 44 nbx 4 14 0 255 0 0 empty \$0-red2 Red 48 8 0 10 -262144
-1 -1 0 256;
#X obj 1124 89 t b f;
#X obj 1038 87 +;
#X obj 1038 116 t b f;
#X obj 958 147 +;
#X obj 957 63 * -65536;
#X obj 1037 63 * -256;
#X obj 1124 67 * -1;
#X obj 958 167 - 1;
#X msg 958 189 color \$1;
#X obj 1036 44 nbx 4 14 0 255 0 0 empty \$0-green2 Green 48 8 0 10
-262144 -1 -1 0 256;
#X obj 1123 44 nbx 4 14 0 255 0 0 empty \$0-blue2 Blue 48 8 0 10 -262144
-1 -1 0 256;
#X obj 265 11 r velocity;
#X obj 260 68 *;
#X floatatom 334 149 5 0 0 0 - - -;
#X obj 265 112 +;
#X msg 332 110 0;
#X obj 103 104 bng 15 250 50 0 empty empty empty 17 7 0 10 -143491
-1 -1;
#X obj 313 225 spigot;
#X obj 363 11 r pitch;
#X obj 402 120 bng 15 250 50 0 empty empty empty 17 7 0 10 -262144
-1 -1;
#X obj 440 230 +;
#X msg 397 234 0;
#X obj 454 318 bng 15 250 50 0 empty empty empty 17 7 0 10 -262144
-1 -1;
#X floatatom 274 228 5 0 0 0 - - -;
#X obj 314 184 expr if ($f1 > 10000 \, 1 \, 0);
#X floatatom 439 267 5 0 0 0 - - -;
#X obj 507 151 / 10000;
#X obj 525 187 * 256;
#X obj 401 350 expr if ($f1 == 0 \, 1 \, 0);
#X obj 384 397 spigot;
#X obj 532 213 int;
#X obj 602 236 -;
#X msg 623 196 256;
#X obj 601 255 abs;
#X obj 872 9 r reset;
#X msg 869 50 0;
#X msg 904 50 256;
#X floatatom 312 52 5 0 0 0 - - -;
#X obj 1378 891 bng 15 250 50 0 empty empty empty 17 7 0 10 -262144
-1 -1;
#X obj 491 260 bng 15 250 50 0 empty empty empty 17 7 0 10 -262144
-1 -1;
#X obj 174 90 bng 15 250 50 0 empty empty empty 17 7 0 10 -262144 -1
-1;
#X obj 158 157 expr if($f2 > 0 \, 1 \, 0);
#X obj 158 203 moses 1;
#X floatatom 1046 189 5 0 0 0 - - -;
#X msg 138 244 color 0;
#X msg 196 249 color 233;
#X obj 234 226 bng 15 250 50 0 empty empty empty 17 7 0 10 -262144
-1 -1;
#X obj 205 226 bng 15 250 50 0 empty empty empty 17 7 0 10 -262144
-1 -1;
#X obj 234 394 array set freq;
#X obj 259 467 array get freq;
#X msg 298 439 1;
#X floatatom 259 492 5 0 0 0 - - -;
#X obj 260 517 + 1;
#X floatatom 393 454 5 0 0 0 - - -;
#X obj 441 290 - 20;
#X connect 0 0 17 0;
#X connect 0 0 21 0;
#X connect 0 0 45 0;
#X connect 4 0 9 0;
#X connect 5 0 6 0;
#X connect 5 1 6 1;
#X connect 6 0 7 0;
#X connect 7 0 8 0;
#X connect 7 1 8 1;
#X connect 8 0 12 0;
#X connect 9 0 8 0;
#X connect 10 0 6 0;
#X connect 11 0 5 0;
#X connect 12 0 13 0;
#X connect 12 0 48 0;
#X connect 14 0 10 0;
#X connect 15 0 11 0;
#X connect 16 0 17 1;
#X connect 16 0 42 0;
#X connect 17 0 19 0;
#X connect 18 0 19 1;
#X connect 18 0 29 0;
#X connect 18 0 31 0;
#X connect 18 0 26 0;
#X connect 19 0 18 0;
#X connect 20 0 18 0;
#X connect 20 0 24 0;
#X connect 23 0 25 1;
#X connect 25 0 30 0;
#X connect 25 0 44 0;
#X connect 26 0 25 0;
#X connect 29 0 22 1;
#X connect 29 0 22 0;
#X connect 30 0 59 0;
#X connect 30 0 54 0;
#X connect 30 0 55 0;
#X connect 30 0 53 1;
#X connect 31 0 32 0;
#X connect 32 0 35 0;
#X connect 33 0 34 1;
#X connect 33 0 34 0;
#X connect 34 0 20 0;
#X connect 35 0 4 0;
#X connect 35 0 36 0;
#X connect 35 0 37 0;
#X connect 36 0 38 0;
#X connect 37 0 36 1;
#X connect 38 0 15 0;
#X connect 39 0 40 0;
#X connect 39 0 41 0;
#X connect 40 0 4 0;
#X connect 41 0 15 0;
#X connect 42 0 46 1;
#X connect 45 0 46 0;
#X connect 46 0 47 0;
#X connect 47 0 49 0;
#X connect 47 0 51 0;
#X connect 47 0 52 0;
#X connect 47 1 50 0;
#X connect 49 0 1 0;
#X connect 50 0 1 0;
#X connect 50 0 21 0;
#X connect 54 0 56 0;
#X connect 55 0 54 1;
#X connect 56 0 57 0;
#X connect 57 0 53 0;
#X coords 0 -1 1 1 20 150 2 100 100;
